<svg width="23" height="22" viewBox="0 0 23 22" fill="none" xmlns="http://www.w3.org/2000/svg">
<path d="M21.9836 20.0308L15.136 13.1832C16.1986 11.8095 16.7734 10.1299 16.7734 8.36328C16.7734 6.24863 15.9481 4.26582 14.4558 2.7708C12.9634 1.27578 10.9753 0.453125 8.86328 0.453125C6.75127 0.453125 4.76318 1.27842 3.2708 2.7708C1.77578 4.26318 0.953125 6.24863 0.953125 8.36328C0.953125 10.4753 1.77842 12.4634 3.2708 13.9558C4.76318 15.4508 6.74863 16.2734 8.86328 16.2734C10.6299 16.2734 12.3068 15.6986 13.6806 14.6387L20.5281 21.4836C20.5482 21.5037 20.572 21.5196 20.5983 21.5305C20.6245 21.5414 20.6527 21.547 20.6811 21.547C20.7095 21.547 20.7376 21.5414 20.7638 21.5305C20.7901 21.5196 20.8139 21.5037 20.834 21.4836L21.9836 20.3366C22.0037 20.3165 22.0196 20.2927 22.0305 20.2665C22.0414 20.2402 22.047 20.2121 22.047 20.1837C22.047 20.1553 22.0414 20.1272 22.0305 20.1009C22.0196 20.0747 22.0037 20.0508 21.9836 20.0308V20.0308ZM13.0398 12.5398C11.9219 13.6552 10.44 14.2695 8.86328 14.2695C7.28652 14.2695 5.80469 13.6552 4.68672 12.5398C3.57139 11.4219 2.95703 9.94004 2.95703 8.36328C2.95703 6.78652 3.57139 5.30205 4.68672 4.18672C5.80469 3.07139 7.28652 2.45703 8.86328 2.45703C10.44 2.45703 11.9245 3.06875 13.0398 4.18672C14.1552 5.30469 14.7695 6.78652 14.7695 8.36328C14.7695 9.94004 14.1552 11.4245 13.0398 12.5398Z" fill="#121212" fill-opacity="0.38"/>
</svg>
