<svg width="120" height="50" viewBox="0 0 120 50" fill="none" xmlns="http://www.w3.org/2000/svg">
<path d="M42 6V45H10.5C9.30653 45 8.16193 44.5259 7.31802 43.682C6.47411 42.8381 6 41.6935 6 40.5C6 39.3065 6.47411 38.1619 7.31802 37.318C8.16193 36.4741 9.30653 36 10.5 36H39V0H9C5.7 0 3 2.7 3 6V42C3 45.3 5.7 48 9 48H45V6H42Z" fill="#EF3F0A"/>
<path d="M10.503 39H10.5C10.1022 39 9.72064 39.158 9.43934 39.4393C9.15804 39.7206 9 40.1022 9 40.5C9 40.8978 9.15804 41.2794 9.43934 41.5607C9.72064 41.842 10.1022 42 10.5 42H38.997V39H10.503Z" fill="#EF3F0A"/>
<path d="M53.3965 28V12.3594H58.875C60.7728 12.3594 62.2122 12.7246 63.1934 13.4551C64.1745 14.1784 64.665 15.2419 64.665 16.6455C64.665 17.4118 64.4681 18.0885 64.0742 18.6758C63.6803 19.2559 63.1325 19.682 62.4307 19.9541C63.2327 20.1546 63.863 20.5592 64.3213 21.168C64.7868 21.7767 65.0195 22.5215 65.0195 23.4023C65.0195 24.9062 64.5397 26.0449 63.5801 26.8184C62.6204 27.5918 61.2526 27.9857 59.4766 28H53.3965ZM56.6191 21.1895V25.4111H59.3799C60.139 25.4111 60.7298 25.2321 61.1523 24.874C61.582 24.5088 61.7969 24.0075 61.7969 23.3701C61.7969 21.9378 61.0557 21.2109 59.5732 21.1895H56.6191ZM56.6191 18.9121H59.0039C60.6296 18.8835 61.4424 18.2354 61.4424 16.9678C61.4424 16.2588 61.2347 15.7503 60.8193 15.4424C60.4111 15.1273 59.763 14.9697 58.875 14.9697H56.6191V18.9121ZM83.3749 20.5342C83.3749 22.0739 83.1028 23.4238 82.5585 24.584C82.0142 25.7441 81.2336 26.6393 80.2167 27.2695C79.207 27.8997 78.0468 28.2148 76.7362 28.2148C75.44 28.2148 74.2835 27.9033 73.2665 27.2803C72.2496 26.6572 71.4618 25.7692 70.9032 24.6162C70.3446 23.4561 70.0618 22.124 70.0546 20.6201V19.8467C70.0546 18.307 70.3303 16.9535 70.8818 15.7861C71.4404 14.6117 72.2245 13.7129 73.2343 13.0898C74.2512 12.4596 75.4114 12.1445 76.7148 12.1445C78.0182 12.1445 79.1747 12.4596 80.1845 13.0898C81.2014 13.7129 81.9856 14.6117 82.537 15.7861C83.0956 16.9535 83.3749 18.3034 83.3749 19.8359V20.5342ZM80.1093 19.8252C80.1093 18.1852 79.8157 16.9391 79.2284 16.0869C78.6412 15.2347 77.8033 14.8086 76.7148 14.8086C75.6334 14.8086 74.7991 15.2311 74.2118 16.0762C73.6246 16.9141 73.3274 18.1458 73.3202 19.7715V20.5342C73.3202 22.1312 73.6139 23.3701 74.2011 24.251C74.7883 25.1318 75.6334 25.5723 76.7362 25.5723C77.8176 25.5723 78.6484 25.1497 79.2284 24.3047C79.8085 23.4525 80.1021 22.2135 80.1093 20.5879V19.8252ZM101.644 20.5342C101.644 22.0739 101.372 23.4238 100.828 24.584C100.284 25.7441 99.5031 26.6393 98.4862 27.2695C97.4764 27.8997 96.3162 28.2148 95.0057 28.2148C93.7095 28.2148 92.5529 27.9033 91.536 27.2803C90.519 26.6572 89.7313 25.7692 89.1727 24.6162C88.6141 23.4561 88.3312 22.124 88.3241 20.6201V19.8467C88.3241 18.307 88.5998 16.9535 89.1512 15.7861C89.7098 14.6117 90.494 13.7129 91.5037 13.0898C92.5207 12.4596 93.6808 12.1445 94.9842 12.1445C96.2876 12.1445 97.4442 12.4596 98.4539 13.0898C99.4709 13.7129 100.255 14.6117 100.806 15.7861C101.365 16.9535 101.644 18.3034 101.644 19.8359V20.5342ZM98.3787 19.8252C98.3787 18.1852 98.0851 16.9391 97.4979 16.0869C96.9107 15.2347 96.0728 14.8086 94.9842 14.8086C93.9028 14.8086 93.0685 15.2311 92.4813 16.0762C91.894 16.9141 91.5968 18.1458 91.5897 19.7715V20.5342C91.5897 22.1312 91.8833 23.3701 92.4705 24.251C93.0578 25.1318 93.9028 25.5723 95.0057 25.5723C96.0871 25.5723 96.9178 25.1497 97.4979 24.3047C98.078 23.4525 98.3716 22.2135 98.3787 20.5879V19.8252ZM111.965 21.7266L110.289 23.5312V28H107.066V12.3594H110.289V19.4492L111.707 17.5049L115.692 12.3594H119.656L114.102 19.3096L119.817 28H115.982L111.965 21.7266ZM61.5068 43.8965C61.5068 43.2878 61.292 42.8223 60.8623 42.5C60.4326 42.1706 59.6592 41.8268 58.542 41.4688C57.4248 41.1035 56.5404 40.7454 55.8887 40.3945C54.1126 39.4349 53.2246 38.1423 53.2246 36.5166C53.2246 35.6715 53.4609 34.9196 53.9336 34.2607C54.4134 33.5947 55.0973 33.0755 55.9854 32.7031C56.8805 32.3307 57.8831 32.1445 58.9932 32.1445C60.1104 32.1445 61.1058 32.3486 61.9795 32.7568C62.8532 33.1579 63.5299 33.7272 64.0098 34.4648C64.4967 35.2025 64.7402 36.0404 64.7402 36.9785H61.5176C61.5176 36.2624 61.292 35.7074 60.8408 35.3135C60.3896 34.9124 59.7559 34.7119 58.9395 34.7119C58.1517 34.7119 57.5394 34.8802 57.1025 35.2168C56.6657 35.5462 56.4473 35.9831 56.4473 36.5273C56.4473 37.0358 56.7015 37.4619 57.21 37.8057C57.7256 38.1494 58.4811 38.4717 59.4766 38.7725C61.3099 39.3239 62.6455 40.0078 63.4834 40.8242C64.3213 41.6406 64.7402 42.6576 64.7402 43.875C64.7402 45.2285 64.2282 46.292 63.2041 47.0654C62.18 47.8317 60.8014 48.2148 59.0684 48.2148C57.8652 48.2148 56.7695 47.9964 55.7812 47.5596C54.793 47.1156 54.0374 46.5104 53.5146 45.7441C52.999 44.9779 52.7412 44.0898 52.7412 43.0801H55.9746C55.9746 44.806 57.0059 45.6689 59.0684 45.6689C59.8346 45.6689 60.4326 45.515 60.8623 45.207C61.292 44.8919 61.5068 44.4551 61.5068 43.8965ZM70.1543 42.4893V48H66.9316V32.3594H73.0332C74.2077 32.3594 75.2389 32.5742 76.127 33.0039C77.0221 33.4336 77.7096 34.0459 78.1895 34.8408C78.6693 35.6286 78.9092 36.5273 78.9092 37.5371C78.9092 39.0697 78.3828 40.2799 77.3301 41.168C76.2845 42.0488 74.8343 42.4893 72.9795 42.4893H70.1543ZM70.1543 39.8789H73.0332C73.8854 39.8789 74.5335 39.6784 74.9775 39.2773C75.4287 38.8763 75.6543 38.3034 75.6543 37.5586C75.6543 36.7923 75.4287 36.1729 74.9775 35.7002C74.5264 35.2275 73.9033 34.984 73.1084 34.9697H70.1543V39.8789ZM88.0508 44.7773H82.4004L81.3262 48H77.8994L83.7217 32.3594H86.708L92.5625 48H89.1357L88.0508 44.7773ZM83.2705 42.167H87.1807L85.2148 36.3125L83.2705 42.167ZM106.065 42.79C105.944 44.473 105.321 45.7979 104.196 46.7646C103.079 47.7314 101.604 48.2148 99.7705 48.2148C97.7653 48.2148 96.1862 47.5417 95.0332 46.1953C93.8874 44.8418 93.3145 42.987 93.3145 40.6309V39.6748C93.3145 38.1709 93.5794 36.846 94.1094 35.7002C94.6393 34.5544 95.3949 33.6771 96.376 33.0684C97.3643 32.4525 98.5101 32.1445 99.8135 32.1445C101.618 32.1445 103.072 32.6279 104.175 33.5947C105.278 34.5615 105.915 35.9186 106.087 37.666H102.864C102.785 36.6562 102.503 35.9258 102.016 35.4746C101.536 35.0163 100.802 34.7871 99.8135 34.7871C98.7393 34.7871 97.9336 35.1738 97.3965 35.9473C96.8665 36.7135 96.5944 37.9059 96.5801 39.5244V40.7061C96.5801 42.3962 96.8343 43.6315 97.3428 44.4121C97.8584 45.1927 98.6676 45.583 99.7705 45.583C100.766 45.583 101.507 45.3574 101.994 44.9062C102.488 44.4479 102.771 43.7425 102.843 42.79H106.065ZM117.592 41.2217H111.404V45.4111H118.666V48H108.182V32.3594H118.645V34.9697H111.404V38.6973H117.592V41.2217Z" fill="#EF3F0A"/>
</svg>
