<svg width="24" height="24" viewBox="0 0 24 24" fill="none" xmlns="http://www.w3.org/2000/svg">
<g clip-path="url(#clip0)">
<path d="M4.29918 22.275C4.18218 22.941 4.83918 23.4615 5.41818 23.1645L12.0032 19.7805L18.5867 23.1645C19.1657 23.4615 19.8227 22.941 19.7057 22.2765L18.4607 15.1815L23.7437 10.1475C24.2387 9.67651 23.9837 8.81551 23.3207 8.72251L15.9737 7.67851L12.6977 1.18801C12.6353 1.05644 12.5368 0.945281 12.4137 0.867445C12.2907 0.789609 12.148 0.748291 12.0024 0.748291C11.8568 0.748291 11.7142 0.789609 11.5911 0.867445C11.468 0.945281 11.3696 1.05644 11.3072 1.18801L8.03118 7.68001L0.684177 8.72401C0.0226774 8.81701 -0.233823 9.67801 0.259677 10.149L5.54418 15.183L4.29918 22.278V22.275ZM11.6567 18.1245L6.12768 20.9655L7.16868 15.03C7.19306 14.8934 7.18352 14.7528 7.14089 14.6208C7.09826 14.4887 7.02384 14.3691 6.92418 14.2725L2.56518 10.1175L8.64318 9.25351C8.76903 9.2345 8.88841 9.18527 8.99108 9.11003C9.09374 9.0348 9.17664 8.93579 9.23268 8.82151L12.0002 3.33451L14.7707 8.82151C14.8267 8.93579 14.9096 9.0348 15.0123 9.11003C15.1149 9.18527 15.2343 9.2345 15.3602 9.25351L21.4382 10.116L17.0792 14.271C16.9793 14.3677 16.9047 14.4876 16.8621 14.62C16.8194 14.7523 16.81 14.8931 16.8347 15.03L17.8757 20.9655L12.3467 18.1245C12.2398 18.0694 12.1212 18.0406 12.0009 18.0406C11.8806 18.0406 11.7621 18.0694 11.6552 18.1245H11.6567Z" fill="#EF3F0A"/>
</g>
<defs>
<clipPath id="clip0">
<rect width="24" height="24" fill="white"/>
</clipPath>
</defs>
</svg>
